<?xml version="1.0" encoding="utf-8" standalone="no"?>
<!DOCTYPE svg PUBLIC "-//W3C//DTD SVG 1.1//EN"
  "http://www.w3.org/Graphics/SVG/1.1/DTD/svg11.dtd">
<svg xmlns:xlink="http://www.w3.org/1999/xlink" width="540pt" height="540pt" viewBox="0 0 540 540" xmlns="http://www.w3.org/2000/svg" version="1.1">
 <metadata>
  <rdf:RDF xmlns:dc="http://purl.org/dc/elements/1.1/" xmlns:cc="http://creativecommons.org/ns#" xmlns:rdf="http://www.w3.org/1999/02/22-rdf-syntax-ns#">
   <cc:Work>
    <dc:type rdf:resource="http://purl.org/dc/dcmitype/StillImage"/>
    <dc:date>2024-04-08T15:21:46.309724</dc:date>
    <dc:format>image/svg+xml</dc:format>
    <dc:creator>
     <cc:Agent>
      <dc:title>Matplotlib v3.5.2, https://matplotlib.org/</dc:title>
     </cc:Agent>
    </dc:creator>
   </cc:Work>
  </rdf:RDF>
 </metadata>
 <defs>
  <style type="text/css">*{stroke-linejoin: round; stroke-linecap: butt}</style>
 </defs>
 <g id="figure_1">
  <g id="patch_1">
   <path d="M 0 540 
L 540 540 
L 540 0 
L 0 0 
z
" style="fill: #ffffff"/>
  </g>
  <g id="axes_1">
   <g id="patch_2">
    <path d="M 105.3125 152.217973 
L 222.204602 152.217973 
L 222.204602 22.384094 
L 105.3125 22.384094 
z
" style="fill: #ffffff"/>
   </g>
   <g id="matplotlib.axis_1">
    <g id="xtick_1">
     <g id="line2d_1">
      <defs>
       <path id="m1db9829479" d="M 0 0 
L 0 3.5 
" style="stroke: #000000; stroke-width: 0.8"/>
      </defs>
      <g>
       <use xlink:href="#m1db9829479" x="140.863941" y="152.217973" style="stroke: #000000; stroke-width: 0.8"/>
      </g>
     </g>
    </g>
    <g id="xtick_2">
     <g id="line2d_2">
      <g>
       <use xlink:href="#m1db9829479" x="212.859569" y="152.217973" style="stroke: #000000; stroke-width: 0.8"/>
      </g>
     </g>
    </g>
   </g>
   <g id="matplotlib.axis_2">
    <g id="ytick_1">
     <g id="line2d_3">
      <defs>
       <path id="m4d9c9cd2cf" d="M 0 0 
L -3.5 0 
" style="stroke: #000000; stroke-width: 0.8"/>
      </defs>
      <g>
       <use xlink:href="#m4d9c9cd2cf" x="105.3125" y="105.792711" style="stroke: #000000; stroke-width: 0.8"/>
      </g>
     </g>
     <g id="text_1">
      <!-- 75 -->
      <g transform="translate(68.3125 116.105211)scale(0.3 -0.3)">
       <defs>
        <path id="SimHei-37" d="M 850 150 
Q 1300 2050 2425 3925 
L 275 3925 
L 275 4375 
L 2950 4375 
L 2950 3950 
Q 1775 2050 1400 150 
L 850 150 
z
" transform="scale(0.015625)"/>
        <path id="SimHei-35" d="M 550 1325 
Q 725 650 1150 575 
Q 1575 500 1837 662 
Q 2100 825 2212 1087 
Q 2325 1350 2312 1675 
Q 2300 2000 2137 2225 
Q 1975 2450 1725 2525 
Q 1475 2600 1162 2525 
Q 850 2450 650 2175 
L 225 2225 
Q 275 2375 700 4375 
L 2675 4375 
L 2675 3925 
L 1075 3925 
Q 950 3250 825 2850 
Q 1200 3025 1525 3012 
Q 1850 3000 2150 2862 
Q 2450 2725 2587 2487 
Q 2725 2250 2787 2012 
Q 2850 1775 2837 1500 
Q 2825 1225 2725 937 
Q 2625 650 2425 462 
Q 2225 275 1937 162 
Q 1650 50 1275 75 
Q 900 100 562 350 
Q 225 600 100 1200 
L 550 1325 
z
" transform="scale(0.015625)"/>
       </defs>
       <use xlink:href="#SimHei-37"/>
       <use xlink:href="#SimHei-35" x="50"/>
      </g>
     </g>
    </g>
    <g id="ytick_2">
     <g id="line2d_4">
      <g>
       <use xlink:href="#m4d9c9cd2cf" x="105.3125" y="32.395858" style="stroke: #000000; stroke-width: 0.8"/>
      </g>
     </g>
     <g id="text_2">
      <!-- 100 -->
      <g transform="translate(53.3125 42.708358)scale(0.3 -0.3)">
       <defs>
        <path id="SimHei-31" d="M 1400 3600 
Q 1075 3275 575 2975 
L 575 3450 
Q 1200 3875 1600 4450 
L 1900 4450 
L 1900 150 
L 1400 150 
L 1400 3600 
z
" transform="scale(0.015625)"/>
        <path id="SimHei-30" d="M 225 2537 
Q 250 3200 412 3587 
Q 575 3975 875 4225 
Q 1175 4475 1612 4475 
Q 2050 4475 2375 4112 
Q 2700 3750 2800 3200 
Q 2900 2650 2862 1937 
Q 2825 1225 2612 775 
Q 2400 325 1975 150 
Q 1550 -25 1125 187 
Q 700 400 525 750 
Q 350 1100 275 1487 
Q 200 1875 225 2537 
z
M 750 2687 
Q 675 2000 800 1462 
Q 925 925 1212 700 
Q 1500 475 1800 612 
Q 2100 750 2237 1162 
Q 2375 1575 2375 2062 
Q 2375 2550 2337 2950 
Q 2300 3350 2112 3675 
Q 1925 4000 1612 4012 
Q 1300 4025 1062 3700 
Q 825 3375 750 2687 
z
" transform="scale(0.015625)"/>
       </defs>
       <use xlink:href="#SimHei-31"/>
       <use xlink:href="#SimHei-30" x="50"/>
       <use xlink:href="#SimHei-30" x="100"/>
      </g>
     </g>
    </g>
    <g id="text_3">
     <!-- 设备S -->
     <g transform="translate(45.5625 124.801034)rotate(-90)scale(0.3 -0.3)">
      <defs>
       <path id="SimHei-8bbe" d="M 2275 2525 
Q 2675 2500 3175 2500 
L 5425 2500 
Q 5275 2050 5012 1512 
Q 4750 975 4300 450 
Q 5100 -75 6150 -100 
Q 5950 -325 5850 -625 
Q 4775 -400 3925 150 
Q 3600 -50 3150 -287 
Q 2700 -525 2175 -675 
Q 2075 -475 1800 -300 
Q 2350 -200 2837 25 
Q 3325 250 3575 475 
Q 3025 1050 2675 2100 
L 2275 2100 
L 2275 2525 
z
M 4825 2775 
Q 4400 2775 4375 3125 
L 4375 4525 
L 3275 4525 
Q 3275 3825 3112 3425 
Q 2950 3025 2425 2600 
Q 2325 2775 2025 2900 
Q 2650 3325 2737 3875 
Q 2825 4425 2800 4925 
L 4900 4925 
Q 4875 4625 4875 4175 
L 4875 3500 
Q 4875 3300 5012 3262 
Q 5150 3225 5400 3237 
Q 5650 3250 5975 3275 
Q 5925 3025 5975 2775 
L 4825 2775 
z
M 1650 3225 
Q 1625 2775 1625 2225 
L 1625 700 
Q 1950 1000 2175 1300 
Q 2250 1050 2425 775 
Q 2100 475 1825 200 
Q 1550 -75 1325 -400 
Q 1150 -125 950 25 
Q 1150 225 1150 600 
L 1150 2800 
Q 625 2800 275 2775 
L 275 3250 
Q 600 3225 950 3225 
L 1650 3225 
z
M 3950 800 
Q 4450 1300 4725 2100 
L 3175 2100 
Q 3350 1325 3950 800 
z
M 1025 5175 
Q 1425 4850 2000 4150 
Q 1800 4025 1600 3825 
Q 1175 4400 700 4850 
Q 850 4950 1025 5175 
z
" transform="scale(0.015625)"/>
       <path id="SimHei-5907" d="M 5100 2025 
Q 5075 1575 5075 700 
Q 5075 -150 5100 -625 
L 4625 -625 
L 4625 -300 
L 1800 -300 
L 1800 -625 
L 1325 -625 
Q 1350 -150 1350 700 
Q 1350 1575 1325 2025 
L 5100 2025 
z
M 525 1875 
Q 475 2100 250 2350 
Q 875 2400 1612 2550 
Q 2350 2700 2800 2950 
Q 2225 3425 1850 3800 
Q 1550 3500 1150 3150 
Q 925 3350 750 3425 
Q 1725 4175 2275 5300 
Q 2525 5150 2800 5050 
L 2600 4850 
Q 2525 4775 2350 4550 
L 5125 4550 
Q 4900 4125 4537 3712 
Q 4175 3300 3675 2925 
Q 4075 2725 4837 2600 
Q 5600 2475 6175 2525 
Q 6025 2275 5950 2000 
Q 5050 2100 4450 2212 
Q 3850 2325 3225 2650 
Q 2525 2325 1762 2150 
Q 1000 1975 525 1875 
z
M 2100 4125 
Q 2625 3625 3275 3175 
Q 3800 3500 4375 4200 
L 2175 4200 
L 2100 4125 
z
M 4625 1050 
L 4625 1650 
L 3425 1650 
L 3425 1050 
L 4625 1050 
z
M 2975 1050 
L 2975 1650 
L 1800 1650 
L 1800 1050 
L 2975 1050 
z
M 4625 100 
L 4625 675 
L 3425 675 
L 3425 100 
L 4625 100 
z
M 2975 100 
L 2975 675 
L 1800 675 
L 1800 100 
L 2975 100 
z
" transform="scale(0.015625)"/>
       <path id="SimHei-53" d="M 2900 1325 
Q 2900 750 2537 412 
Q 2175 75 1550 75 
Q 925 75 575 425 
Q 225 775 225 1300 
L 225 1475 
L 800 1475 
L 800 1325 
Q 800 950 1025 750 
Q 1250 550 1550 550 
Q 1950 550 2137 762 
Q 2325 975 2325 1275 
Q 2325 1525 2100 1737 
Q 1875 1950 1450 2125 
Q 850 2350 587 2625 
Q 325 2900 325 3275 
Q 325 3800 687 4125 
Q 1050 4450 1550 4450 
Q 2200 4450 2487 4062 
Q 2775 3675 2775 3225 
L 2200 3225 
Q 2225 3500 2050 3725 
Q 1875 3950 1550 3950 
Q 1250 3950 1075 3787 
Q 900 3625 900 3350 
Q 900 3125 1037 2962 
Q 1175 2800 1750 2575 
Q 2300 2350 2600 2037 
Q 2900 1725 2900 1325 
z
" transform="scale(0.015625)"/>
      </defs>
      <use xlink:href="#SimHei-8bbe"/>
      <use xlink:href="#SimHei-5907" x="100"/>
      <use xlink:href="#SimHei-53" x="200"/>
     </g>
    </g>
   </g>
   <g id="patch_3">
    <path d="M 105.3125 152.217973 
L 105.3125 22.384094 
" style="fill: none; stroke: #000000; stroke-width: 0.8; stroke-linejoin: miter; stroke-linecap: square"/>
   </g>
   <g id="patch_4">
    <path d="M 105.3125 152.217973 
L 222.204602 152.217973 
" style="fill: none; stroke: #000000; stroke-width: 0.8; stroke-linejoin: miter; stroke-linecap: square"/>
   </g>
  </g>
  <g id="axes_2">
   <g id="patch_5">
    <path d="M 254.010199 152.217973 
L 370.902301 152.217973 
L 370.902301 22.384094 
L 254.010199 22.384094 
z
" style="fill: #ffffff"/>
   </g>
   <g id="matplotlib.axis_3">
    <g id="xtick_3">
     <g id="line2d_5">
      <g>
       <use xlink:href="#m1db9829479" x="254.010199" y="152.217973" style="stroke: #000000; stroke-width: 0.8"/>
      </g>
     </g>
    </g>
    <g id="xtick_4">
     <g id="line2d_6">
      <g>
       <use xlink:href="#m1db9829479" x="370.902301" y="152.217973" style="stroke: #000000; stroke-width: 0.8"/>
      </g>
     </g>
    </g>
   </g>
   <g id="matplotlib.axis_4">
    <g id="ytick_3">
     <g id="line2d_7">
      <g>
       <use xlink:href="#m4d9c9cd2cf" x="254.010199" y="105.792711" style="stroke: #000000; stroke-width: 0.8"/>
      </g>
     </g>
    </g>
    <g id="ytick_4">
     <g id="line2d_8">
      <g>
       <use xlink:href="#m4d9c9cd2cf" x="254.010199" y="32.395858" style="stroke: #000000; stroke-width: 0.8"/>
      </g>
     </g>
    </g>
   </g>
   <g id="patch_6">
    <path d="M 254.010199 152.217973 
L 254.010199 22.384094 
" style="fill: none; stroke: #000000; stroke-width: 0.8; stroke-linejoin: miter; stroke-linecap: square"/>
   </g>
   <g id="patch_7">
    <path d="M 254.010199 152.217973 
L 370.902301 152.217973 
" style="fill: none; stroke: #000000; stroke-width: 0.8; stroke-linejoin: miter; stroke-linecap: square"/>
   </g>
   <g id="text_4">
    <!-- R = 0.31 -->
    <g transform="translate(248.45625 98.301034)scale(0.16 -0.16)">
     <defs>
      <path id="SimHei-52" d="M 3000 125 
L 2400 125 
L 1500 1975 
L 850 1975 
L 850 125 
L 275 125 
L 275 4400 
L 1525 4400 
Q 2125 4400 2500 4112 
Q 2875 3825 2875 3175 
Q 2875 2675 2625 2400 
Q 2375 2125 2050 2050 
L 3000 125 
z
M 2300 3175 
Q 2300 3525 2087 3725 
Q 1875 3925 1400 3925 
L 850 3925 
L 850 2450 
L 1550 2450 
Q 1850 2450 2075 2612 
Q 2300 2775 2300 3175 
z
" transform="scale(0.015625)"/>
      <path id="SimHei-20" transform="scale(0.015625)"/>
      <path id="SimHei-3d" d="M 2975 2900 
L 125 2900 
L 125 3300 
L 2975 3300 
L 2975 2900 
z
M 2975 1375 
L 125 1375 
L 125 1775 
L 2975 1775 
L 2975 1375 
z
" transform="scale(0.015625)"/>
      <path id="SimHei-2e" d="M 1075 125 
L 500 125 
L 500 675 
L 1075 675 
L 1075 125 
z
" transform="scale(0.015625)"/>
      <path id="SimHei-33" d="M 250 1225 
L 700 1300 
Q 800 975 1025 762 
Q 1250 550 1587 562 
Q 1925 575 2125 837 
Q 2325 1100 2300 1437 
Q 2275 1775 2037 1962 
Q 1800 2150 1275 2225 
L 1275 2550 
Q 1800 2600 2037 2825 
Q 2275 3050 2250 3412 
Q 2225 3775 1925 3937 
Q 1625 4100 1287 3975 
Q 950 3850 750 3275 
L 300 3350 
Q 450 3800 712 4100 
Q 975 4400 1425 4450 
Q 1875 4500 2212 4337 
Q 2550 4175 2687 3837 
Q 2825 3500 2725 3100 
Q 2625 2700 2150 2400 
Q 2500 2250 2687 1950 
Q 2875 1650 2812 1162 
Q 2750 675 2375 375 
Q 2000 75 1525 87 
Q 1050 100 700 387 
Q 350 675 250 1225 
z
" transform="scale(0.015625)"/>
     </defs>
     <use xlink:href="#SimHei-52"/>
     <use xlink:href="#SimHei-20" x="50"/>
     <use xlink:href="#SimHei-3d" x="100"/>
     <use xlink:href="#SimHei-20" x="150"/>
     <use xlink:href="#SimHei-30" x="200"/>
     <use xlink:href="#SimHei-2e" x="250"/>
     <use xlink:href="#SimHei-33" x="300"/>
     <use xlink:href="#SimHei-31" x="350"/>
    </g>
   </g>
  </g>
  <g id="axes_3">
   <g id="patch_8">
    <path d="M 402.707898 152.217973 
L 519.6 152.217973 
L 519.6 22.384094 
L 402.707898 22.384094 
z
" style="fill: #ffffff"/>
   </g>
   <g id="matplotlib.axis_5">
    <g id="xtick_5">
     <g id="line2d_9">
      <g>
       <use xlink:href="#m1db9829479" x="402.707898" y="152.217973" style="stroke: #000000; stroke-width: 0.8"/>
      </g>
     </g>
    </g>
    <g id="xtick_6">
     <g id="line2d_10">
      <g>
       <use xlink:href="#m1db9829479" x="519.6" y="152.217973" style="stroke: #000000; stroke-width: 0.8"/>
      </g>
     </g>
    </g>
   </g>
   <g id="matplotlib.axis_6">
    <g id="ytick_5">
     <g id="line2d_11">
      <g>
       <use xlink:href="#m4d9c9cd2cf" x="402.707898" y="105.792711" style="stroke: #000000; stroke-width: 0.8"/>
      </g>
     </g>
    </g>
    <g id="ytick_6">
     <g id="line2d_12">
      <g>
       <use xlink:href="#m4d9c9cd2cf" x="402.707898" y="32.395858" style="stroke: #000000; stroke-width: 0.8"/>
      </g>
     </g>
    </g>
   </g>
   <g id="patch_9">
    <path d="M 402.707898 152.217973 
L 402.707898 22.384094 
" style="fill: none; stroke: #000000; stroke-width: 0.8; stroke-linejoin: miter; stroke-linecap: square"/>
   </g>
   <g id="patch_10">
    <path d="M 402.707898 152.217973 
L 519.6 152.217973 
" style="fill: none; stroke: #000000; stroke-width: 0.8; stroke-linejoin: miter; stroke-linecap: square"/>
   </g>
   <g id="text_5">
    <!-- R = 0.30 -->
    <g transform="translate(397.153949 98.301034)scale(0.16 -0.16)">
     <use xlink:href="#SimHei-52"/>
     <use xlink:href="#SimHei-20" x="50"/>
     <use xlink:href="#SimHei-3d" x="100"/>
     <use xlink:href="#SimHei-20" x="150"/>
     <use xlink:href="#SimHei-30" x="200"/>
     <use xlink:href="#SimHei-2e" x="250"/>
     <use xlink:href="#SimHei-33" x="300"/>
     <use xlink:href="#SimHei-30" x="350"/>
    </g>
   </g>
  </g>
  <g id="axes_4">
   <g id="patch_11">
    <path d="M 105.3125 303.397737 
L 222.204602 303.397737 
L 222.204602 173.563858 
L 105.3125 173.563858 
z
" style="fill: #ffffff"/>
   </g>
   <g id="PathCollection_1">
    <defs>
     <path id="m8b92fdaa50" d="M 0 3 
C 0.795609 3 1.55874 2.683901 2.12132 2.12132 
C 2.683901 1.55874 3 0.795609 3 0 
C 3 -0.795609 2.683901 -1.55874 2.12132 -2.12132 
C 1.55874 -2.683901 0.795609 -3 0 -3 
C -0.795609 -3 -1.55874 -2.683901 -2.12132 -2.12132 
C -2.683901 -1.55874 -3 -0.795609 -3 0 
C -3 0.795609 -2.683901 1.55874 -2.12132 2.12132 
C -1.55874 2.683901 -0.795609 3 0 3 
z
" style="stroke: #1f77b4; stroke-opacity: 0.8"/>
    </defs>
    <g clip-path="url(#p7c0df7b63c)">
     <use xlink:href="#m8b92fdaa50" x="216.891324" y="276.975709" style="fill: #1f77b4; fill-opacity: 0.8; stroke: #1f77b4; stroke-opacity: 0.8"/>
     <use xlink:href="#m8b92fdaa50" x="130.784553" y="269.573452" style="fill: #1f77b4; fill-opacity: 0.8; stroke: #1f77b4; stroke-opacity: 0.8"/>
     <use xlink:href="#m8b92fdaa50" x="120.417183" y="273.27458" style="fill: #1f77b4; fill-opacity: 0.8; stroke: #1f77b4; stroke-opacity: 0.8"/>
     <use xlink:href="#m8b92fdaa50" x="114.081568" y="289.929659" style="fill: #1f77b4; fill-opacity: 0.8; stroke: #1f77b4; stroke-opacity: 0.8"/>
     <use xlink:href="#m8b92fdaa50" x="134.816308" y="267.722887" style="fill: #1f77b4; fill-opacity: 0.8; stroke: #1f77b4; stroke-opacity: 0.8"/>
     <use xlink:href="#m8b92fdaa50" x="124.448938" y="288.079094" style="fill: #1f77b4; fill-opacity: 0.8; stroke: #1f77b4; stroke-opacity: 0.8"/>
     <use xlink:href="#m8b92fdaa50" x="141.439906" y="260.32063" style="fill: #1f77b4; fill-opacity: 0.8; stroke: #1f77b4; stroke-opacity: 0.8"/>
     <use xlink:href="#m8b92fdaa50" x="128.768676" y="275.125144" style="fill: #1f77b4; fill-opacity: 0.8; stroke: #1f77b4; stroke-opacity: 0.8"/>
     <use xlink:href="#m8b92fdaa50" x="122.721043" y="297.331916" style="fill: #1f77b4; fill-opacity: 0.8; stroke: #1f77b4; stroke-opacity: 0.8"/>
     <use xlink:href="#m8b92fdaa50" x="110.625777" y="286.22853" style="fill: #1f77b4; fill-opacity: 0.8; stroke: #1f77b4; stroke-opacity: 0.8"/>
     <use xlink:href="#m8b92fdaa50" x="149.791399" y="262.171195" style="fill: #1f77b4; fill-opacity: 0.8; stroke: #1f77b4; stroke-opacity: 0.8"/>
    </g>
   </g>
   <g id="PolyCollection_1">
    <path d="M 110.625777 271.555122 
L 110.625777 297.496197 
L 111.699167 296.223949 
L 112.772556 294.97538 
L 113.845945 293.809001 
L 114.919335 292.562333 
L 115.992724 291.482224 
L 117.066114 290.473687 
L 118.139503 289.514303 
L 119.212892 288.554918 
L 120.286282 287.553001 
L 121.359671 286.79139 
L 122.43306 286.105352 
L 123.50645 285.554037 
L 124.579839 284.952692 
L 125.653228 284.514468 
L 126.726618 284.171529 
L 127.800007 283.810067 
L 128.873397 283.685471 
L 129.946786 283.590097 
L 131.020175 283.472263 
L 132.093565 283.332881 
L 133.166954 283.192134 
L 134.240343 283.050602 
L 135.313733 282.89228 
L 136.387122 282.769006 
L 137.460511 282.62898 
L 138.533901 282.488953 
L 139.60729 282.369961 
L 140.68068 282.251115 
L 141.754069 282.13227 
L 142.827458 282.013424 
L 143.900848 281.893823 
L 144.974237 281.77514 
L 146.047626 281.643922 
L 147.121016 281.501518 
L 148.194405 281.359114 
L 149.267794 281.21671 
L 150.341184 281.127416 
L 151.414573 280.990023 
L 152.487963 280.82075 
L 153.561352 280.71862 
L 154.634741 280.608391 
L 155.708131 280.420335 
L 156.78152 280.232279 
L 157.854909 280.076561 
L 158.928299 279.933771 
L 160.001688 279.825154 
L 161.075077 279.731106 
L 162.148467 279.637057 
L 163.221856 279.543008 
L 164.295246 279.446495 
L 165.368635 279.305363 
L 166.442024 279.231567 
L 167.515414 279.15777 
L 168.588803 279.078341 
L 169.662192 278.986118 
L 170.735582 278.893539 
L 171.808971 278.800178 
L 172.88236 278.685746 
L 173.95575 278.570491 
L 175.029139 278.451474 
L 176.102529 278.332456 
L 177.175918 278.213521 
L 178.249307 278.132289 
L 179.322697 278.051482 
L 180.396086 277.890798 
L 181.469475 277.812135 
L 182.542865 277.732727 
L 183.616254 277.652772 
L 184.689643 277.572657 
L 185.763033 277.492542 
L 186.836422 277.395512 
L 187.909812 277.261559 
L 188.983201 277.144044 
L 190.05659 277.032735 
L 191.12998 276.909278 
L 192.203369 276.768894 
L 193.276758 276.670364 
L 194.350148 276.581437 
L 195.423537 276.457476 
L 196.496927 276.33894 
L 197.570316 276.291449 
L 198.643705 276.220817 
L 199.717095 276.102985 
L 200.790484 276.011434 
L 201.863873 275.941439 
L 202.937263 275.870496 
L 204.010652 275.799553 
L 205.084041 275.708478 
L 206.157431 275.621113 
L 207.23082 275.566904 
L 208.30421 275.509453 
L 209.377599 275.421556 
L 210.450988 275.360771 
L 211.524378 275.322997 
L 212.597767 275.290015 
L 213.671156 275.211902 
L 214.744546 275.129651 
L 215.817935 275.108112 
L 216.891324 275.097611 
L 216.891324 179.465398 
L 216.891324 179.465398 
L 215.817935 180.665268 
L 214.744546 181.865137 
L 213.671156 183.065007 
L 212.597767 184.264877 
L 211.524378 185.464747 
L 210.450988 186.664617 
L 209.377599 187.864487 
L 208.30421 189.064357 
L 207.23082 190.264227 
L 206.157431 191.464097 
L 205.084041 192.663966 
L 204.010652 193.863836 
L 202.937263 195.063706 
L 201.863873 196.263576 
L 200.790484 197.463446 
L 199.717095 198.663316 
L 198.643705 199.863186 
L 197.570316 201.063056 
L 196.496927 202.262925 
L 195.423537 203.462795 
L 194.350148 204.662665 
L 193.276758 205.862535 
L 192.203369 207.062405 
L 191.12998 208.262275 
L 190.05659 209.432232 
L 188.983201 210.588748 
L 187.909812 211.745265 
L 186.836422 212.901781 
L 185.763033 214.058298 
L 184.689643 215.216133 
L 183.616254 216.374538 
L 182.542865 217.532943 
L 181.469475 218.691348 
L 180.396086 219.849753 
L 179.322697 221.008158 
L 178.249307 222.166563 
L 177.175918 223.297965 
L 176.102529 224.413661 
L 175.029139 225.529357 
L 173.95575 226.645052 
L 172.88236 227.842401 
L 171.808971 229.082912 
L 170.735582 230.26668 
L 169.662192 231.424247 
L 168.588803 232.585205 
L 167.515414 233.881977 
L 166.442024 235.13652 
L 165.368635 236.312482 
L 164.295246 237.474719 
L 163.221856 238.651324 
L 162.148467 239.954106 
L 161.075077 241.256232 
L 160.001688 242.322903 
L 158.928299 243.389573 
L 157.854909 244.456243 
L 156.78152 245.595407 
L 155.708131 246.754964 
L 154.634741 247.914522 
L 153.561352 248.994705 
L 152.487963 250.009061 
L 151.414573 251.167607 
L 150.341184 252.277223 
L 149.267794 253.454054 
L 148.194405 254.623846 
L 147.121016 255.731718 
L 146.047626 256.8662 
L 144.974237 258.021176 
L 143.900848 259.050589 
L 142.827458 260.131212 
L 141.754069 261.265405 
L 140.68068 262.34837 
L 139.60729 263.371124 
L 138.533901 264.454406 
L 137.460511 265.513185 
L 136.387122 266.604319 
L 135.313733 267.571219 
L 134.240343 268.400615 
L 133.166954 269.194838 
L 132.093565 269.997594 
L 131.020175 270.579068 
L 129.946786 271.001418 
L 128.873397 271.303558 
L 127.800007 271.461744 
L 126.726618 271.512039 
L 125.653228 271.52409 
L 124.579839 271.518938 
L 123.50645 271.501527 
L 122.43306 271.48158 
L 121.359671 271.501871 
L 120.286282 271.499014 
L 119.212892 271.493522 
L 118.139503 271.48855 
L 117.066114 271.484438 
L 115.992724 271.489982 
L 114.919335 271.523585 
L 113.845945 271.557188 
L 112.772556 271.586091 
L 111.699167 271.570391 
L 110.625777 271.555122 
z
" clip-path="url(#p7c0df7b63c)" style="fill: #1f77b4; fill-opacity: 0.15"/>
   </g>
   <g id="matplotlib.axis_7">
    <g id="xtick_7">
     <g id="line2d_13">
      <g>
       <use xlink:href="#m1db9829479" x="140.863941" y="303.397737" style="stroke: #000000; stroke-width: 0.8"/>
      </g>
     </g>
    </g>
    <g id="xtick_8">
     <g id="line2d_14">
      <g>
       <use xlink:href="#m1db9829479" x="212.859569" y="303.397737" style="stroke: #000000; stroke-width: 0.8"/>
      </g>
     </g>
    </g>
   </g>
   <g id="matplotlib.axis_8">
    <g id="ytick_7">
     <g id="line2d_15">
      <g>
       <use xlink:href="#m4d9c9cd2cf" x="105.3125" y="275.125144" style="stroke: #000000; stroke-width: 0.8"/>
      </g>
     </g>
     <g id="text_6">
      <!-- 2.5 -->
      <g transform="translate(53.3125 285.437644)scale(0.3 -0.3)">
       <defs>
        <path id="SimHei-32" d="M 300 250 
Q 325 625 650 925 
Q 975 1225 1475 1862 
Q 1975 2500 2125 2850 
Q 2275 3200 2237 3450 
Q 2200 3700 2000 3862 
Q 1800 4025 1537 4000 
Q 1275 3975 1037 3800 
Q 800 3625 675 3275 
L 200 3350 
Q 400 3925 712 4187 
Q 1025 4450 1450 4475 
Q 1700 4500 1900 4462 
Q 2100 4425 2312 4287 
Q 2525 4150 2662 3875 
Q 2800 3600 2762 3212 
Q 2725 2825 2375 2287 
Q 2025 1750 1025 600 
L 2825 600 
L 2825 150 
L 300 150 
L 300 250 
z
" transform="scale(0.015625)"/>
       </defs>
       <use xlink:href="#SimHei-32"/>
       <use xlink:href="#SimHei-2e" x="50"/>
       <use xlink:href="#SimHei-35" x="100"/>
      </g>
     </g>
    </g>
    <g id="ytick_8">
     <g id="line2d_16">
      <g>
       <use xlink:href="#m4d9c9cd2cf" x="105.3125" y="228.861038" style="stroke: #000000; stroke-width: 0.8"/>
      </g>
     </g>
     <g id="text_7">
      <!-- 5.0 -->
      <g transform="translate(53.3125 239.173538)scale(0.3 -0.3)">
       <use xlink:href="#SimHei-35"/>
       <use xlink:href="#SimHei-2e" x="50"/>
       <use xlink:href="#SimHei-30" x="100"/>
      </g>
     </g>
    </g>
    <g id="ytick_9">
     <g id="line2d_17">
      <g>
       <use xlink:href="#m4d9c9cd2cf" x="105.3125" y="182.596931" style="stroke: #000000; stroke-width: 0.8"/>
      </g>
     </g>
     <g id="text_8">
      <!-- 7.5 -->
      <g transform="translate(53.3125 192.909431)scale(0.3 -0.3)">
       <use xlink:href="#SimHei-37"/>
       <use xlink:href="#SimHei-2e" x="50"/>
       <use xlink:href="#SimHei-35" x="100"/>
      </g>
     </g>
    </g>
    <g id="text_9">
     <!-- 设备Z -->
     <g transform="translate(45.5625 275.980797)rotate(-90)scale(0.3 -0.3)">
      <defs>
       <path id="SimHei-5a" d="M 2900 125 
L 225 125 
L 225 600 
L 2250 3925 
L 375 3925 
L 375 4400 
L 2825 4400 
L 2825 3925 
L 800 600 
L 2900 600 
L 2900 125 
z
" transform="scale(0.015625)"/>
      </defs>
      <use xlink:href="#SimHei-8bbe"/>
      <use xlink:href="#SimHei-5907" x="100"/>
      <use xlink:href="#SimHei-5a" x="200"/>
     </g>
    </g>
   </g>
   <g id="line2d_18">
    <path d="M 110.625777 280.211794 
L 111.699167 280.074302 
L 112.772556 279.936811 
L 113.845945 279.799319 
L 114.919335 279.661827 
L 115.992724 279.524335 
L 117.066114 279.386844 
L 118.139503 279.249352 
L 119.212892 279.11186 
L 120.286282 278.974369 
L 121.359671 278.836877 
L 122.43306 278.699385 
L 123.50645 278.561894 
L 124.579839 278.424402 
L 125.653228 278.28691 
L 126.726618 278.149418 
L 127.800007 278.011927 
L 128.873397 277.874435 
L 129.946786 277.736943 
L 131.020175 277.599452 
L 132.093565 277.46196 
L 133.166954 277.324468 
L 134.240343 277.186976 
L 135.313733 277.049485 
L 136.387122 276.911993 
L 137.460511 276.774501 
L 138.533901 276.63701 
L 139.60729 276.499518 
L 140.68068 276.362026 
L 141.754069 276.224534 
L 142.827458 276.087043 
L 143.900848 275.949551 
L 144.974237 275.812059 
L 146.047626 275.674568 
L 147.121016 275.537076 
L 148.194405 275.399584 
L 149.267794 275.262093 
L 150.341184 275.124601 
L 151.414573 274.987109 
L 152.487963 274.849617 
L 153.561352 274.712126 
L 154.634741 274.574634 
L 155.708131 274.437142 
L 156.78152 274.299651 
L 157.854909 274.162159 
L 158.928299 274.024667 
L 160.001688 273.887175 
L 161.075077 273.749684 
L 162.148467 273.612192 
L 163.221856 273.4747 
L 164.295246 273.337209 
L 165.368635 273.199717 
L 166.442024 273.062225 
L 167.515414 272.924733 
L 168.588803 272.787242 
L 169.662192 272.64975 
L 170.735582 272.512258 
L 171.808971 272.374767 
L 172.88236 272.237275 
L 173.95575 272.099783 
L 175.029139 271.962291 
L 176.102529 271.8248 
L 177.175918 271.687308 
L 178.249307 271.549816 
L 179.322697 271.412325 
L 180.396086 271.274833 
L 181.469475 271.137341 
L 182.542865 270.99985 
L 183.616254 270.862358 
L 184.689643 270.724866 
L 185.763033 270.587374 
L 186.836422 270.449883 
L 187.909812 270.312391 
L 188.983201 270.174899 
L 190.05659 270.037408 
L 191.12998 269.899916 
L 192.203369 269.762424 
L 193.276758 269.624932 
L 194.350148 269.487441 
L 195.423537 269.349949 
L 196.496927 269.212457 
L 197.570316 269.074966 
L 198.643705 268.937474 
L 199.717095 268.799982 
L 200.790484 268.66249 
L 201.863873 268.524999 
L 202.937263 268.387507 
L 204.010652 268.250015 
L 205.084041 268.112524 
L 206.157431 267.975032 
L 207.23082 267.83754 
L 208.30421 267.700049 
L 209.377599 267.562557 
L 210.450988 267.425065 
L 211.524378 267.287573 
L 212.597767 267.150082 
L 213.671156 267.01259 
L 214.744546 266.875098 
L 215.817935 266.737607 
L 216.891324 266.600115 
" clip-path="url(#p7c0df7b63c)" style="fill: none; stroke: #1f77b4; stroke-width: 2.25; stroke-linecap: square"/>
   </g>
   <g id="patch_12">
    <path d="M 105.3125 303.397737 
L 105.3125 173.563858 
" style="fill: none; stroke: #000000; stroke-width: 0.8; stroke-linejoin: miter; stroke-linecap: square"/>
   </g>
   <g id="patch_13">
    <path d="M 105.3125 303.397737 
L 222.204602 303.397737 
" style="fill: none; stroke: #000000; stroke-width: 0.8; stroke-linejoin: miter; stroke-linecap: square"/>
   </g>
  </g>
  <g id="axes_5">
   <g id="patch_14">
    <path d="M 254.010199 303.397737 
L 370.902301 303.397737 
L 370.902301 173.563858 
L 254.010199 173.563858 
z
" style="fill: #ffffff"/>
   </g>
   <g id="matplotlib.axis_9">
    <g id="xtick_9">
     <g id="line2d_19">
      <g>
       <use xlink:href="#m1db9829479" x="254.010199" y="303.397737" style="stroke: #000000; stroke-width: 0.8"/>
      </g>
     </g>
    </g>
    <g id="xtick_10">
     <g id="line2d_20">
      <g>
       <use xlink:href="#m1db9829479" x="370.902301" y="303.397737" style="stroke: #000000; stroke-width: 0.8"/>
      </g>
     </g>
    </g>
   </g>
   <g id="matplotlib.axis_10">
    <g id="ytick_10">
     <g id="line2d_21">
      <g>
       <use xlink:href="#m4d9c9cd2cf" x="254.010199" y="275.125144" style="stroke: #000000; stroke-width: 0.8"/>
      </g>
     </g>
    </g>
    <g id="ytick_11">
     <g id="line2d_22">
      <g>
       <use xlink:href="#m4d9c9cd2cf" x="254.010199" y="228.861038" style="stroke: #000000; stroke-width: 0.8"/>
      </g>
     </g>
    </g>
    <g id="ytick_12">
     <g id="line2d_23">
      <g>
       <use xlink:href="#m4d9c9cd2cf" x="254.010199" y="182.596931" style="stroke: #000000; stroke-width: 0.8"/>
      </g>
     </g>
    </g>
   </g>
   <g id="patch_15">
    <path d="M 254.010199 303.397737 
L 254.010199 173.563858 
" style="fill: none; stroke: #000000; stroke-width: 0.8; stroke-linejoin: miter; stroke-linecap: square"/>
   </g>
   <g id="patch_16">
    <path d="M 254.010199 303.397737 
L 370.902301 303.397737 
" style="fill: none; stroke: #000000; stroke-width: 0.8; stroke-linejoin: miter; stroke-linecap: square"/>
   </g>
  </g>
  <g id="axes_6">
   <g id="patch_17">
    <path d="M 402.707898 303.397737 
L 519.6 303.397737 
L 519.6 173.563858 
L 402.707898 173.563858 
z
" style="fill: #ffffff"/>
   </g>
   <g id="matplotlib.axis_11">
    <g id="xtick_11">
     <g id="line2d_24">
      <g>
       <use xlink:href="#m1db9829479" x="402.707898" y="303.397737" style="stroke: #000000; stroke-width: 0.8"/>
      </g>
     </g>
    </g>
    <g id="xtick_12">
     <g id="line2d_25">
      <g>
       <use xlink:href="#m1db9829479" x="519.6" y="303.397737" style="stroke: #000000; stroke-width: 0.8"/>
      </g>
     </g>
    </g>
   </g>
   <g id="matplotlib.axis_12">
    <g id="ytick_13">
     <g id="line2d_26">
      <g>
       <use xlink:href="#m4d9c9cd2cf" x="402.707898" y="275.125144" style="stroke: #000000; stroke-width: 0.8"/>
      </g>
     </g>
    </g>
    <g id="ytick_14">
     <g id="line2d_27">
      <g>
       <use xlink:href="#m4d9c9cd2cf" x="402.707898" y="228.861038" style="stroke: #000000; stroke-width: 0.8"/>
      </g>
     </g>
    </g>
    <g id="ytick_15">
     <g id="line2d_28">
      <g>
       <use xlink:href="#m4d9c9cd2cf" x="402.707898" y="182.596931" style="stroke: #000000; stroke-width: 0.8"/>
      </g>
     </g>
    </g>
   </g>
   <g id="patch_18">
    <path d="M 402.707898 303.397737 
L 402.707898 173.563858 
" style="fill: none; stroke: #000000; stroke-width: 0.8; stroke-linejoin: miter; stroke-linecap: square"/>
   </g>
   <g id="patch_19">
    <path d="M 402.707898 303.397737 
L 519.6 303.397737 
" style="fill: none; stroke: #000000; stroke-width: 0.8; stroke-linejoin: miter; stroke-linecap: square"/>
   </g>
   <g id="text_10">
    <!-- R = 0.94 -->
    <g transform="translate(397.153949 249.480797)scale(0.16 -0.16)">
     <defs>
      <path id="SimHei-39" d="M 800 75 
Q 1350 1000 1700 1750 
Q 1075 1650 662 1912 
Q 250 2175 162 2625 
Q 75 3075 175 3437 
Q 275 3800 487 4037 
Q 700 4275 1000 4375 
Q 1300 4475 1537 4475 
Q 1775 4475 2025 4375 
Q 2275 4275 2475 4075 
Q 2675 3875 2750 3662 
Q 2825 3450 2825 3112 
Q 2825 2775 2575 2250 
Q 2325 1725 1350 75 
L 800 75 
z
M 662 2875 
Q 700 2550 937 2337 
Q 1175 2125 1450 2150 
Q 1725 2175 1887 2300 
Q 2050 2425 2200 2725 
Q 2300 3100 2250 3362 
Q 2200 3625 1987 3800 
Q 1775 3975 1525 3975 
Q 1375 4000 1137 3900 
Q 900 3800 762 3500 
Q 625 3200 662 2875 
z
" transform="scale(0.015625)"/>
      <path id="SimHei-34" d="M 2000 1100 
L 75 1100 
L 75 1525 
L 2100 4450 
L 2475 4450 
L 2475 1525 
L 3075 1525 
L 3075 1100 
L 2475 1100 
L 2475 150 
L 2000 150 
L 2000 1100 
z
M 2000 1525 
L 2000 3500 
L 600 1525 
L 2000 1525 
z
" transform="scale(0.015625)"/>
     </defs>
     <use xlink:href="#SimHei-52"/>
     <use xlink:href="#SimHei-20" x="50"/>
     <use xlink:href="#SimHei-3d" x="100"/>
     <use xlink:href="#SimHei-20" x="150"/>
     <use xlink:href="#SimHei-30" x="200"/>
     <use xlink:href="#SimHei-2e" x="250"/>
     <use xlink:href="#SimHei-39" x="300"/>
     <use xlink:href="#SimHei-34" x="350"/>
    </g>
   </g>
  </g>
  <g id="axes_7">
   <g id="patch_20">
    <path d="M 105.3125 454.5775 
L 222.204602 454.5775 
L 222.204602 324.743621 
L 105.3125 324.743621 
z
" style="fill: #ffffff"/>
   </g>
   <g id="PathCollection_2">
    <g clip-path="url(#p8c2c94ad98)">
     <use xlink:href="#m8b92fdaa50" x="216.891324" y="426.772052" style="fill: #1f77b4; fill-opacity: 0.8; stroke: #1f77b4; stroke-opacity: 0.8"/>
     <use xlink:href="#m8b92fdaa50" x="130.784553" y="425.402684" style="fill: #1f77b4; fill-opacity: 0.8; stroke: #1f77b4; stroke-opacity: 0.8"/>
     <use xlink:href="#m8b92fdaa50" x="120.417183" y="423.484731" style="fill: #1f77b4; fill-opacity: 0.8; stroke: #1f77b4; stroke-opacity: 0.8"/>
     <use xlink:href="#m8b92fdaa50" x="114.081568" y="438.794855" style="fill: #1f77b4; fill-opacity: 0.8; stroke: #1f77b4; stroke-opacity: 0.8"/>
     <use xlink:href="#m8b92fdaa50" x="134.816308" y="415.482092" style="fill: #1f77b4; fill-opacity: 0.8; stroke: #1f77b4; stroke-opacity: 0.8"/>
     <use xlink:href="#m8b92fdaa50" x="124.448938" y="439.814552" style="fill: #1f77b4; fill-opacity: 0.8; stroke: #1f77b4; stroke-opacity: 0.8"/>
     <use xlink:href="#m8b92fdaa50" x="141.439906" y="409.770109" style="fill: #1f77b4; fill-opacity: 0.8; stroke: #1f77b4; stroke-opacity: 0.8"/>
     <use xlink:href="#m8b92fdaa50" x="128.768676" y="422.980116" style="fill: #1f77b4; fill-opacity: 0.8; stroke: #1f77b4; stroke-opacity: 0.8"/>
     <use xlink:href="#m8b92fdaa50" x="122.721043" y="441.636189" style="fill: #1f77b4; fill-opacity: 0.8; stroke: #1f77b4; stroke-opacity: 0.8"/>
     <use xlink:href="#m8b92fdaa50" x="110.625777" y="437.054877" style="fill: #1f77b4; fill-opacity: 0.8; stroke: #1f77b4; stroke-opacity: 0.8"/>
     <use xlink:href="#m8b92fdaa50" x="149.791399" y="422.563443" style="fill: #1f77b4; fill-opacity: 0.8; stroke: #1f77b4; stroke-opacity: 0.8"/>
    </g>
   </g>
   <g id="PolyCollection_2">
    <path d="M 110.625777 422.553382 
L 110.625777 446.197809 
L 111.699167 445.089789 
L 112.772556 443.958104 
L 113.845945 442.882201 
L 114.919335 441.808693 
L 115.992724 440.854847 
L 117.066114 439.857191 
L 118.139503 438.743113 
L 119.212892 437.589739 
L 120.286282 436.928533 
L 121.359671 436.148007 
L 122.43306 435.335523 
L 123.50645 434.86178 
L 124.579839 434.488184 
L 125.653228 434.055495 
L 126.726618 433.661111 
L 127.800007 433.555264 
L 128.873397 433.23069 
L 129.946786 433.091451 
L 131.020175 432.968764 
L 132.093565 432.856866 
L 133.166954 432.732879 
L 134.240343 432.653497 
L 135.313733 432.575983 
L 136.387122 432.478407 
L 137.460511 432.32458 
L 138.533901 432.168607 
L 139.60729 432.076096 
L 140.68068 431.993939 
L 141.754069 431.911016 
L 142.827458 431.767671 
L 143.900848 431.618398 
L 144.974237 431.489539 
L 146.047626 431.395747 
L 147.121016 431.300131 
L 148.194405 431.21026 
L 149.267794 431.117787 
L 150.341184 431.0128 
L 151.414573 430.851368 
L 152.487963 430.758924 
L 153.561352 430.669609 
L 154.634741 430.568221 
L 155.708131 430.474524 
L 156.78152 430.363469 
L 157.854909 430.235692 
L 158.928299 430.108138 
L 160.001688 429.980455 
L 161.075077 429.861922 
L 162.148467 429.726116 
L 163.221856 429.62086 
L 164.295246 429.501678 
L 165.368635 429.377136 
L 166.442024 429.252593 
L 167.515414 429.175847 
L 168.588803 429.097634 
L 169.662192 429.01487 
L 170.735582 428.947802 
L 171.808971 428.880138 
L 172.88236 428.807492 
L 173.95575 428.712253 
L 175.029139 428.615796 
L 176.102529 428.509158 
L 177.175918 428.371422 
L 178.249307 428.267372 
L 179.322697 428.16448 
L 180.396086 428.096084 
L 181.469475 428.027515 
L 182.542865 427.944072 
L 183.616254 427.868786 
L 184.689643 427.79983 
L 185.763033 427.693474 
L 186.836422 427.581999 
L 187.909812 427.464629 
L 188.983201 427.368452 
L 190.05659 427.292497 
L 191.12998 427.224743 
L 192.203369 427.15699 
L 193.276758 427.089236 
L 194.350148 427.021483 
L 195.423537 426.944981 
L 196.496927 426.830179 
L 197.570316 426.727574 
L 198.643705 426.689824 
L 199.717095 426.629104 
L 200.790484 426.553999 
L 201.863873 426.46509 
L 202.937263 426.36246 
L 204.010652 426.292795 
L 205.084041 426.226731 
L 206.157431 426.18504 
L 207.23082 426.093954 
L 208.30421 426.029607 
L 209.377599 425.963193 
L 210.450988 425.945954 
L 211.524378 425.897168 
L 212.597767 425.821161 
L 213.671156 425.748753 
L 214.744546 425.647846 
L 215.817935 425.570016 
L 216.891324 425.547966 
L 216.891324 330.645161 
L 216.891324 330.645161 
L 215.817935 331.813738 
L 214.744546 332.982315 
L 213.671156 334.150891 
L 212.597767 335.319468 
L 211.524378 336.488045 
L 210.450988 337.656622 
L 209.377599 338.825198 
L 208.30421 339.993775 
L 207.23082 341.162352 
L 206.157431 342.330929 
L 205.084041 343.499506 
L 204.010652 344.668082 
L 202.937263 345.836659 
L 201.863873 347.005236 
L 200.790484 348.173813 
L 199.717095 349.34239 
L 198.643705 350.510966 
L 197.570316 351.679543 
L 196.496927 352.84812 
L 195.423537 354.016697 
L 194.350148 355.185274 
L 193.276758 356.35385 
L 192.203369 357.522427 
L 191.12998 358.691004 
L 190.05659 359.85803 
L 188.983201 360.999605 
L 187.909812 362.141181 
L 186.836422 363.282756 
L 185.763033 364.424331 
L 184.689643 365.565907 
L 183.616254 366.707482 
L 182.542865 367.849057 
L 181.469475 368.990633 
L 180.396086 370.132208 
L 179.322697 371.273783 
L 178.249307 372.406898 
L 177.175918 373.528013 
L 176.102529 374.649128 
L 175.029139 375.770243 
L 173.95575 376.891358 
L 172.88236 378.012535 
L 171.808971 379.134216 
L 170.735582 380.255897 
L 169.662192 381.377578 
L 168.588803 382.498501 
L 167.515414 383.618605 
L 166.442024 384.738708 
L 165.368635 385.858812 
L 164.295246 386.978915 
L 163.221856 388.099019 
L 162.148467 389.219122 
L 161.075077 390.339226 
L 160.001688 391.459329 
L 158.928299 392.579433 
L 157.854909 393.639991 
L 156.78152 394.704438 
L 155.708131 395.925484 
L 154.634741 397.059847 
L 153.561352 398.179302 
L 152.487963 399.299017 
L 151.414573 400.442918 
L 150.341184 401.665311 
L 149.267794 402.882971 
L 148.194405 404.032716 
L 147.121016 405.067411 
L 146.047626 406.103152 
L 144.974237 407.320538 
L 143.900848 408.372825 
L 142.827458 409.623086 
L 141.754069 410.828211 
L 140.68068 411.911241 
L 139.60729 412.962701 
L 138.533901 414.163289 
L 137.460511 415.298966 
L 136.387122 416.331022 
L 135.313733 417.32797 
L 134.240343 418.390725 
L 133.166954 419.421828 
L 132.093565 420.32834 
L 131.020175 421.282082 
L 129.946786 421.852571 
L 128.873397 422.217314 
L 127.800007 422.408371 
L 126.726618 422.414999 
L 125.653228 422.476587 
L 124.579839 422.540486 
L 123.50645 422.599513 
L 122.43306 422.600603 
L 121.359671 422.602454 
L 120.286282 422.583302 
L 119.212892 422.563886 
L 118.139503 422.560099 
L 117.066114 422.55178 
L 115.992724 422.544118 
L 114.919335 422.583379 
L 113.845945 422.6149 
L 112.772556 422.586759 
L 111.699167 422.558619 
L 110.625777 422.553382 
z
" clip-path="url(#p8c2c94ad98)" style="fill: #1f77b4; fill-opacity: 0.15"/>
   </g>
   <g id="matplotlib.axis_13">
    <g id="xtick_13">
     <g id="line2d_29">
      <g>
       <use xlink:href="#m1db9829479" x="140.863941" y="454.5775" style="stroke: #000000; stroke-width: 0.8"/>
      </g>
     </g>
     <g id="text_11">
      <!-- 75 -->
      <g transform="translate(125.863941 482.2025)scale(0.3 -0.3)">
       <use xlink:href="#SimHei-37"/>
       <use xlink:href="#SimHei-35" x="50"/>
      </g>
     </g>
    </g>
    <g id="xtick_14">
     <g id="line2d_30">
      <g>
       <use xlink:href="#m1db9829479" x="212.859569" y="454.5775" style="stroke: #000000; stroke-width: 0.8"/>
      </g>
     </g>
     <g id="text_12">
      <!-- 100 -->
      <g transform="translate(190.359569 482.2025)scale(0.3 -0.3)">
       <use xlink:href="#SimHei-31"/>
       <use xlink:href="#SimHei-30" x="50"/>
       <use xlink:href="#SimHei-30" x="100"/>
      </g>
     </g>
    </g>
    <g id="text_13">
     <!-- 设备S -->
     <g transform="translate(126.258551 514.210312)scale(0.3 -0.3)">
      <use xlink:href="#SimHei-8bbe"/>
      <use xlink:href="#SimHei-5907" x="100"/>
      <use xlink:href="#SimHei-53" x="200"/>
     </g>
    </g>
   </g>
   <g id="matplotlib.axis_14">
    <g id="ytick_16">
     <g id="line2d_31">
      <g>
       <use xlink:href="#m4d9c9cd2cf" x="105.3125" y="450.003155" style="stroke: #000000; stroke-width: 0.8"/>
      </g>
     </g>
     <g id="text_14">
      <!-- 0 -->
      <g transform="translate(83.3125 460.315655)scale(0.3 -0.3)">
       <use xlink:href="#SimHei-30"/>
      </g>
     </g>
    </g>
    <g id="ytick_17">
     <g id="line2d_32">
      <g>
       <use xlink:href="#m4d9c9cd2cf" x="105.3125" y="345.311389" style="stroke: #000000; stroke-width: 0.8"/>
      </g>
     </g>
     <g id="text_15">
      <!-- 500 -->
      <g transform="translate(53.3125 355.623889)scale(0.3 -0.3)">
       <use xlink:href="#SimHei-35"/>
       <use xlink:href="#SimHei-30" x="50"/>
       <use xlink:href="#SimHei-30" x="100"/>
      </g>
     </g>
    </g>
    <g id="text_16">
     <!-- 静态抗压强度 -->
     <g transform="translate(45.5625 479.660561)rotate(-90)scale(0.3 -0.3)">
      <defs>
       <path id="SimHei-9759" d="M 4325 5050 
Q 4200 4900 4137 4762 
Q 4075 4625 4025 4500 
L 5400 4500 
Q 5250 4275 5125 3987 
Q 5000 3700 4850 3375 
L 5775 3375 
Q 5750 3025 5750 2625 
L 5750 2350 
Q 5975 2350 6200 2375 
L 6200 1950 
Q 6025 1975 5750 1975 
L 5750 1625 
Q 5750 1125 5775 675 
L 5325 675 
L 5325 950 
L 4625 950 
L 4625 25 
Q 4600 -300 4412 -425 
Q 4225 -550 3600 -600 
Q 3600 -350 3450 -75 
Q 3775 -100 3987 -75 
Q 4200 -50 4200 175 
L 4200 950 
L 3850 950 
Q 3550 950 3225 925 
L 3225 1325 
Q 3525 1300 3850 1300 
L 4200 1300 
L 4200 1975 
L 3825 1975 
Q 3500 1975 3075 1950 
L 3075 2350 
Q 3425 2325 3850 2325 
L 4200 2325 
L 4200 3025 
L 3850 3025 
Q 3700 3025 3325 3000 
L 3325 3325 
Q 3250 3250 3125 3100 
Q 3000 3300 2825 3450 
Q 3225 3850 3437 4362 
Q 3650 4875 3775 5250 
Q 4025 5125 4325 5050 
z
M 2750 2325 
Q 2725 1975 2725 1600 
L 2725 75 
Q 2725 -300 2525 -400 
Q 2325 -500 1925 -575 
Q 1900 -350 1750 -100 
Q 2325 -100 2275 125 
L 2275 425 
L 975 425 
L 975 -525 
L 525 -525 
Q 550 -250 550 125 
L 550 1600 
Q 550 1975 525 2325 
L 2750 2325 
z
M 1400 4550 
Q 1400 4775 1375 5150 
L 1875 5150 
Q 1850 4775 1850 4550 
L 2175 4550 
Q 2525 4550 3000 4575 
L 3000 4175 
Q 2525 4200 2175 4200 
L 1850 4200 
L 1850 3800 
L 2175 3800 
Q 2325 3800 2725 3825 
L 2725 3425 
Q 2300 3450 2150 3450 
L 1850 3450 
L 1850 3050 
L 2250 3050 
Q 2600 3050 2975 3075 
L 2975 2675 
Q 2575 2700 2250 2700 
L 1000 2700 
Q 600 2700 250 2675 
L 250 3075 
Q 600 3050 1000 3050 
L 1400 3050 
L 1400 3450 
L 975 3450 
Q 825 3450 550 3425 
L 550 3825 
Q 825 3800 975 3800 
L 1400 3800 
L 1400 4200 
L 975 4200 
Q 650 4200 300 4175 
L 300 4575 
Q 650 4550 975 4550 
L 1400 4550 
z
M 3375 3425 
Q 3675 3400 4125 3400 
L 4375 3400 
Q 4625 3925 4700 4150 
L 3850 4150 
Q 3525 3625 3375 3425 
z
M 2275 775 
L 2275 1225 
L 975 1225 
L 975 775 
L 2275 775 
z
M 2275 1575 
L 2275 1975 
L 975 1975 
L 975 1575 
L 2275 1575 
z
M 5325 2325 
L 5325 3025 
L 4625 3025 
L 4625 2325 
L 5325 2325 
z
M 5325 1300 
L 5325 1975 
L 4625 1975 
L 4625 1300 
L 5325 1300 
z
" transform="scale(0.015625)"/>
       <path id="SimHei-6001" d="M 2575 4325 
Q 2700 4800 2725 5250 
Q 3075 5125 3350 5100 
Q 3225 4875 3100 4325 
L 5025 4325 
Q 5375 4325 5825 4375 
L 5825 3850 
Q 5350 3875 5000 3875 
L 3975 3875 
Q 4225 3300 4575 2987 
Q 4925 2675 5250 2525 
Q 5575 2375 6100 2275 
Q 5800 2075 5675 1775 
Q 4900 2100 4525 2412 
Q 4150 2725 3900 3075 
Q 3650 3425 3500 3875 
L 2975 3875 
Q 2675 3200 2187 2687 
Q 1700 2175 725 1625 
Q 650 1850 300 2075 
Q 900 2275 1512 2750 
Q 2125 3225 2425 3875 
L 1300 3875 
Q 900 3875 450 3850 
L 450 4375 
Q 875 4325 1300 4325 
L 2575 4325 
z
M 2525 1350 
Q 2500 875 2500 575 
Q 2500 300 2512 150 
Q 2525 0 2800 0 
L 3825 0 
Q 4025 -25 4175 62 
Q 4325 150 4400 625 
Q 4650 450 4975 375 
Q 4775 -150 4625 -312 
Q 4475 -475 4000 -450 
L 2500 -450 
Q 2050 -400 2012 -162 
Q 1975 75 1975 425 
Q 1975 800 1950 1350 
L 2525 1350 
z
M 1425 1175 
Q 1175 450 825 -325 
Q 625 -175 325 -125 
Q 775 625 875 1375 
Q 1175 1250 1425 1175 
z
M 5175 1525 
Q 5600 950 6050 350 
Q 5800 175 5600 0 
Q 5225 700 4750 1250 
Q 5000 1350 5175 1525 
z
M 2700 3050 
Q 3175 2675 3500 2325 
Q 3275 2175 3100 1975 
Q 2825 2350 2350 2700 
L 2700 3050 
z
M 3375 1750 
Q 3625 1350 3825 925 
Q 3625 800 3375 675 
Q 3200 1175 2950 1525 
Q 3175 1600 3375 1750 
z
" transform="scale(0.015625)"/>
       <path id="SimHei-6297" d="M 6150 325 
Q 6050 -125 5950 -300 
Q 5850 -475 5550 -475 
L 5075 -475 
Q 4500 -475 4500 -50 
L 4500 2450 
L 3600 2450 
Q 3600 1650 3550 1150 
Q 3500 650 3337 325 
Q 3175 0 2975 -225 
Q 2775 -450 2575 -700 
Q 2375 -425 2125 -250 
Q 2500 -50 2762 362 
Q 3025 775 3087 1362 
Q 3150 1950 3100 2850 
L 5050 2850 
Q 5000 2400 5000 1800 
L 5000 250 
Q 5000 -50 5137 -62 
Q 5275 -75 5375 -75 
Q 5475 -75 5525 37 
Q 5575 150 5625 600 
Q 5875 375 6150 325 
z
M 425 1200 
Q 350 1500 225 1800 
Q 475 1875 1175 2075 
L 1175 3350 
Q 625 3350 300 3325 
L 300 3775 
Q 600 3750 1175 3725 
Q 1175 4525 1125 5200 
L 1675 5200 
Q 1650 4575 1650 3725 
Q 1800 3750 2250 3775 
L 2250 3325 
Q 1800 3350 1650 3350 
L 1650 2225 
Q 2100 2375 2400 2500 
Q 2400 2275 2450 2075 
Q 2125 1950 1650 1750 
L 1650 175 
Q 1650 -225 1475 -362 
Q 1300 -500 700 -625 
Q 675 -400 550 0 
Q 1025 -50 1100 50 
Q 1175 150 1175 300 
L 1175 1575 
Q 600 1300 425 1200 
z
M 5075 4000 
Q 5500 4025 6000 4050 
L 6000 3550 
Q 5500 3600 5100 3600 
L 3400 3600 
Q 2925 3600 2500 3550 
L 2500 4050 
Q 2925 4025 3400 4000 
L 5075 4000 
z
M 4125 5200 
Q 4375 4625 4475 4425 
Q 4200 4350 4000 4225 
Q 3900 4425 3650 5000 
Q 3875 5100 4125 5200 
z
" transform="scale(0.015625)"/>
       <path id="SimHei-538b" d="M 3300 2725 
L 3300 3475 
Q 3300 3875 3275 4150 
L 3850 4150 
Q 3800 3950 3800 3450 
L 3800 2725 
L 4700 2725 
Q 5225 2725 5475 2750 
L 5475 2200 
Q 5225 2225 4700 2225 
L 3800 2225 
L 3800 175 
L 4900 175 
Q 5525 175 5850 200 
L 5850 -325 
Q 5525 -300 4925 -300 
L 2375 -300 
Q 1725 -300 1450 -325 
L 1450 200 
Q 1825 175 2375 175 
L 3300 175 
L 3300 2225 
L 2725 2225 
Q 2075 2225 1850 2200 
L 1850 2750 
Q 2250 2725 2725 2725 
L 3300 2725 
z
M 4900 4950 
Q 5450 4950 5750 4975 
L 5750 4475 
Q 5500 4500 4900 4500 
L 1450 4500 
L 1450 2275 
Q 1450 1425 1262 725 
Q 1075 25 725 -650 
Q 525 -450 200 -325 
Q 625 300 775 862 
Q 925 1425 950 2125 
L 950 4000 
Q 925 4525 900 4950 
L 4900 4950 
z
M 4625 1850 
Q 5025 1325 5275 925 
Q 5000 775 4775 625 
Q 4525 1150 4225 1575 
Q 4450 1700 4625 1850 
z
" transform="scale(0.015625)"/>
       <path id="SimHei-5f3a" d="M 2350 25 
Q 3100 75 3950 225 
L 3950 1200 
L 3100 1200 
L 3100 975 
L 2625 975 
Q 2650 1725 2650 2050 
L 2650 2875 
L 3950 2875 
L 3950 3500 
L 2850 3500 
Q 2875 3900 2875 4275 
Q 2875 4675 2850 5025 
L 5525 5025 
Q 5500 4675 5500 4275 
Q 5500 3900 5525 3500 
L 4400 3500 
L 4400 2875 
L 5750 2875 
Q 5725 2575 5725 2075 
Q 5725 1575 5750 1200 
L 4400 1200 
L 4400 275 
L 5250 425 
Q 5150 575 5050 750 
Q 5300 825 5475 925 
Q 5925 200 6175 -250 
Q 5925 -350 5725 -500 
Q 5625 -250 5425 100 
Q 5125 50 4225 -137 
Q 3325 -325 2600 -525 
Q 2525 -200 2350 25 
z
M 600 -25 
Q 1250 -25 1400 50 
Q 1550 125 1575 325 
L 1675 1850 
L 500 1850 
Q 550 2350 562 2762 
Q 575 3175 575 3575 
L 1800 3575 
L 1800 4550 
L 1275 4550 
Q 825 4550 425 4525 
L 425 4950 
Q 850 4925 1275 4925 
L 2275 4925 
Q 2250 4525 2250 4075 
Q 2250 3650 2275 3200 
L 1075 3200 
L 1025 2225 
L 2175 2225 
Q 2125 1775 2100 1425 
L 2025 150 
Q 1975 -250 1637 -387 
Q 1300 -525 850 -600 
Q 775 -275 600 -25 
z
M 5050 3875 
L 5050 4650 
L 3325 4650 
L 3325 3875 
L 5050 3875 
z
M 3950 1575 
L 3950 2500 
L 3100 2500 
L 3100 1575 
L 3950 1575 
z
M 5250 1575 
L 5250 2500 
L 4400 2500 
L 4400 1575 
L 5250 1575 
z
" transform="scale(0.015625)"/>
       <path id="SimHei-5ea6" d="M 1750 1675 
Q 2450 1650 2875 1650 
L 5200 1650 
Q 4975 1250 4650 850 
Q 4325 450 4025 200 
Q 4350 50 4950 -50 
Q 5550 -150 6100 -150 
Q 5950 -300 5825 -650 
Q 5100 -550 4550 -412 
Q 4000 -275 3625 -100 
Q 3100 -325 2587 -462 
Q 2075 -600 1525 -675 
Q 1450 -475 1225 -250 
Q 1675 -250 2250 -125 
Q 2825 0 3250 200 
Q 2825 550 2400 1275 
L 1750 1250 
L 1750 1675 
z
M 2975 5075 
Q 3250 5150 3475 5250 
Q 3625 4975 3775 4525 
L 4700 4525 
Q 4975 4525 5700 4550 
L 5700 4100 
Q 5000 4125 4650 4125 
L 1375 4125 
Q 1375 3000 1350 2312 
Q 1325 1625 1212 950 
Q 1100 275 725 -525 
Q 500 -375 250 -300 
Q 650 400 762 1075 
Q 875 1750 887 2800 
Q 900 3850 875 4525 
L 3200 4525 
Q 3100 4850 2975 5075 
z
M 2475 3300 
Q 2475 3700 2450 3925 
L 2975 3925 
Q 2950 3725 2950 3300 
L 4300 3300 
Q 4300 3700 4275 3950 
L 4800 3950 
Q 4775 3650 4775 3300 
Q 5325 3300 5725 3325 
L 5725 2900 
Q 5350 2925 4775 2925 
Q 4775 2250 4800 1950 
L 2450 1950 
Q 2475 2350 2475 2925 
Q 2175 2925 1600 2900 
L 1600 3325 
Q 2175 3300 2475 3300 
z
M 4300 2350 
L 4300 2925 
L 2950 2925 
L 2950 2350 
L 4300 2350 
z
M 2875 1275 
Q 3200 775 3650 425 
Q 4025 700 4425 1275 
L 2900 1275 
L 2875 1275 
z
" transform="scale(0.015625)"/>
      </defs>
      <use xlink:href="#SimHei-9759"/>
      <use xlink:href="#SimHei-6001" x="100"/>
      <use xlink:href="#SimHei-6297" x="200"/>
      <use xlink:href="#SimHei-538b" x="300"/>
      <use xlink:href="#SimHei-5f3a" x="400"/>
      <use xlink:href="#SimHei-5ea6" x="500"/>
     </g>
    </g>
   </g>
   <g id="line2d_33">
    <path d="M 110.625777 430.350321 
L 111.699167 430.23407 
L 112.772556 430.117818 
L 113.845945 430.001566 
L 114.919335 429.885315 
L 115.992724 429.769063 
L 117.066114 429.652811 
L 118.139503 429.53656 
L 119.212892 429.420308 
L 120.286282 429.304056 
L 121.359671 429.187805 
L 122.43306 429.071553 
L 123.50645 428.955302 
L 124.579839 428.83905 
L 125.653228 428.722798 
L 126.726618 428.606547 
L 127.800007 428.490295 
L 128.873397 428.374043 
L 129.946786 428.257792 
L 131.020175 428.14154 
L 132.093565 428.025288 
L 133.166954 427.909037 
L 134.240343 427.792785 
L 135.313733 427.676534 
L 136.387122 427.560282 
L 137.460511 427.44403 
L 138.533901 427.327779 
L 139.60729 427.211527 
L 140.68068 427.095275 
L 141.754069 426.979024 
L 142.827458 426.862772 
L 143.900848 426.74652 
L 144.974237 426.630269 
L 146.047626 426.514017 
L 147.121016 426.397766 
L 148.194405 426.281514 
L 149.267794 426.165262 
L 150.341184 426.049011 
L 151.414573 425.932759 
L 152.487963 425.816507 
L 153.561352 425.700256 
L 154.634741 425.584004 
L 155.708131 425.467752 
L 156.78152 425.351501 
L 157.854909 425.235249 
L 158.928299 425.118998 
L 160.001688 425.002746 
L 161.075077 424.886494 
L 162.148467 424.770243 
L 163.221856 424.653991 
L 164.295246 424.537739 
L 165.368635 424.421488 
L 166.442024 424.305236 
L 167.515414 424.188984 
L 168.588803 424.072733 
L 169.662192 423.956481 
L 170.735582 423.84023 
L 171.808971 423.723978 
L 172.88236 423.607726 
L 173.95575 423.491475 
L 175.029139 423.375223 
L 176.102529 423.258971 
L 177.175918 423.14272 
L 178.249307 423.026468 
L 179.322697 422.910216 
L 180.396086 422.793965 
L 181.469475 422.677713 
L 182.542865 422.561462 
L 183.616254 422.44521 
L 184.689643 422.328958 
L 185.763033 422.212707 
L 186.836422 422.096455 
L 187.909812 421.980203 
L 188.983201 421.863952 
L 190.05659 421.7477 
L 191.12998 421.631448 
L 192.203369 421.515197 
L 193.276758 421.398945 
L 194.350148 421.282694 
L 195.423537 421.166442 
L 196.496927 421.05019 
L 197.570316 420.933939 
L 198.643705 420.817687 
L 199.717095 420.701435 
L 200.790484 420.585184 
L 201.863873 420.468932 
L 202.937263 420.35268 
L 204.010652 420.236429 
L 205.084041 420.120177 
L 206.157431 420.003926 
L 207.23082 419.887674 
L 208.30421 419.771422 
L 209.377599 419.655171 
L 210.450988 419.538919 
L 211.524378 419.422667 
L 212.597767 419.306416 
L 213.671156 419.190164 
L 214.744546 419.073912 
L 215.817935 418.957661 
L 216.891324 418.841409 
" clip-path="url(#p8c2c94ad98)" style="fill: none; stroke: #1f77b4; stroke-width: 2.25; stroke-linecap: square"/>
   </g>
   <g id="patch_21">
    <path d="M 105.3125 454.5775 
L 105.3125 324.743621 
" style="fill: none; stroke: #000000; stroke-width: 0.8; stroke-linejoin: miter; stroke-linecap: square"/>
   </g>
   <g id="patch_22">
    <path d="M 105.3125 454.5775 
L 222.204602 454.5775 
" style="fill: none; stroke: #000000; stroke-width: 0.8; stroke-linejoin: miter; stroke-linecap: square"/>
   </g>
  </g>
  <g id="axes_8">
   <g id="patch_23">
    <path d="M 254.010199 454.5775 
L 370.902301 454.5775 
L 370.902301 324.743621 
L 254.010199 324.743621 
z
" style="fill: #ffffff"/>
   </g>
   <g id="PathCollection_3">
    <g clip-path="url(#pb3524890eb)">
     <use xlink:href="#m8b92fdaa50" x="534.551243" y="426.772052" style="fill: #1f77b4; fill-opacity: 0.8; stroke: #1f77b4; stroke-opacity: 0.8"/>
     <use xlink:href="#m8b92fdaa50" x="581.308084" y="425.402684" style="fill: #1f77b4; fill-opacity: 0.8; stroke: #1f77b4; stroke-opacity: 0.8"/>
     <use xlink:href="#m8b92fdaa50" x="557.929664" y="423.484731" style="fill: #1f77b4; fill-opacity: 0.8; stroke: #1f77b4; stroke-opacity: 0.8"/>
     <use xlink:href="#m8b92fdaa50" x="452.726772" y="438.794855" style="fill: #1f77b4; fill-opacity: 0.8; stroke: #1f77b4; stroke-opacity: 0.8"/>
     <use xlink:href="#m8b92fdaa50" x="592.997294" y="415.482092" style="fill: #1f77b4; fill-opacity: 0.8; stroke: #1f77b4; stroke-opacity: 0.8"/>
     <use xlink:href="#m8b92fdaa50" x="464.415982" y="439.814552" style="fill: #1f77b4; fill-opacity: 0.8; stroke: #1f77b4; stroke-opacity: 0.8"/>
     <use xlink:href="#m8b92fdaa50" x="639.754135" y="409.770109" style="fill: #1f77b4; fill-opacity: 0.8; stroke: #1f77b4; stroke-opacity: 0.8"/>
     <use xlink:href="#m8b92fdaa50" x="546.240454" y="422.980116" style="fill: #1f77b4; fill-opacity: 0.8; stroke: #1f77b4; stroke-opacity: 0.8"/>
     <use xlink:href="#m8b92fdaa50" x="405.969931" y="441.636189" style="fill: #1f77b4; fill-opacity: 0.8; stroke: #1f77b4; stroke-opacity: 0.8"/>
     <use xlink:href="#m8b92fdaa50" x="476.105192" y="437.054877" style="fill: #1f77b4; fill-opacity: 0.8; stroke: #1f77b4; stroke-opacity: 0.8"/>
     <use xlink:href="#m8b92fdaa50" x="628.064925" y="422.563443" style="fill: #1f77b4; fill-opacity: 0.8; stroke: #1f77b4; stroke-opacity: 0.8"/>
    </g>
   </g>
   <g id="PolyCollection_3">
    <path d="M 405.969931 440.689682 
L 405.969931 448.67596 
L 408.331388 448.291143 
L 410.692845 447.906326 
L 413.054301 447.521927 
L 415.415758 447.13914 
L 417.777214 446.756344 
L 420.138671 446.373547 
L 422.500128 445.99075 
L 424.861584 445.607954 
L 427.223041 445.225157 
L 429.584497 444.84236 
L 431.945954 444.459563 
L 434.307411 444.066983 
L 436.668867 443.672134 
L 439.030324 443.289463 
L 441.39178 442.896313 
L 443.753237 442.487289 
L 446.114694 442.078427 
L 448.47615 441.688968 
L 450.837607 441.311895 
L 453.199063 440.930878 
L 455.56052 440.547089 
L 457.921977 440.167882 
L 460.283433 439.780753 
L 462.64489 439.396914 
L 465.006346 439.021479 
L 467.367803 438.629524 
L 469.72926 438.236587 
L 472.090716 437.857078 
L 474.452173 437.486046 
L 476.813629 437.117858 
L 479.175086 436.743996 
L 481.536543 436.369407 
L 483.897999 436.013793 
L 486.259456 435.668269 
L 488.620912 435.333173 
L 490.982369 435.037699 
L 493.343826 434.739576 
L 495.705282 434.416982 
L 498.066739 434.131967 
L 500.428195 433.808301 
L 502.789652 433.519518 
L 505.151109 433.274491 
L 507.512565 433.00513 
L 509.874022 432.747423 
L 512.235478 432.489212 
L 514.596935 432.20924 
L 516.958392 431.930006 
L 519.319848 431.663626 
L 521.681305 431.342262 
L 524.042761 431.080362 
L 526.404218 430.831549 
L 528.765675 430.591808 
L 531.127131 430.329844 
L 533.488588 430.072944 
L 535.850045 429.80236 
L 538.211501 429.518372 
L 540.572958 429.271241 
L 542.934414 429.033146 
L 545.295871 428.743603 
L 547.657328 428.500901 
L 550.018784 428.26215 
L 552.380241 428.0234 
L 554.741697 427.784649 
L 557.103154 427.545899 
L 559.464611 427.307148 
L 561.826067 427.067886 
L 564.187524 426.847194 
L 566.54898 426.63287 
L 568.910437 426.418546 
L 571.271894 426.185649 
L 573.63335 425.940094 
L 575.994807 425.721461 
L 578.356263 425.502829 
L 580.71772 425.284196 
L 583.079177 425.065564 
L 585.440633 424.846931 
L 587.80209 424.628299 
L 590.163546 424.408824 
L 592.525003 424.189249 
L 594.88646 423.965842 
L 597.247916 423.715403 
L 599.609373 423.46468 
L 601.970829 423.213956 
L 604.332286 422.976369 
L 606.693743 422.725927 
L 609.055199 422.475485 
L 611.416656 422.224885 
L 613.778112 421.973839 
L 616.139569 421.752422 
L 618.501026 421.601129 
L 620.862482 421.358518 
L 623.223939 421.115907 
L 625.585395 420.873296 
L 627.946852 420.630686 
L 630.308309 420.388075 
L 632.669765 420.145464 
L 635.031222 419.902854 
L 637.392678 419.660703 
L 639.754135 419.445856 
L 639.754135 409.167156 
L 639.754135 409.167156 
L 637.392678 409.537458 
L 635.031222 409.907767 
L 632.669765 410.278548 
L 630.308309 410.674277 
L 627.946852 411.073978 
L 625.585395 411.448811 
L 623.223939 411.837772 
L 620.862482 412.234697 
L 618.501026 412.61532 
L 616.139569 412.982917 
L 613.778112 413.37654 
L 611.416656 413.785887 
L 609.055199 414.191679 
L 606.693743 414.552087 
L 604.332286 414.931632 
L 601.970829 415.274875 
L 599.609373 415.641152 
L 597.247916 415.995912 
L 594.88646 416.360312 
L 592.525003 416.769548 
L 590.163546 417.178918 
L 587.80209 417.568535 
L 585.440633 417.926715 
L 583.079177 418.280482 
L 580.71772 418.640169 
L 578.356263 419.000308 
L 575.994807 419.347294 
L 573.63335 419.730113 
L 571.271894 420.113942 
L 568.910437 420.489132 
L 566.54898 420.812637 
L 564.187524 421.1725 
L 561.826067 421.53722 
L 559.464611 421.892634 
L 557.103154 422.255169 
L 554.741697 422.620752 
L 552.380241 422.988532 
L 550.018784 423.332125 
L 547.657328 423.681893 
L 545.295871 424.00535 
L 542.934414 424.345143 
L 540.572958 424.709385 
L 538.211501 425.07525 
L 535.850045 425.444406 
L 533.488588 425.781048 
L 531.127131 426.103479 
L 528.765675 426.407954 
L 526.404218 426.702494 
L 524.042761 427.040333 
L 521.681305 427.343834 
L 519.319848 427.668794 
L 516.958392 427.992839 
L 514.596935 428.337826 
L 512.235478 428.681058 
L 509.874022 428.98981 
L 507.512565 429.276816 
L 505.151109 429.564368 
L 502.789652 429.875296 
L 500.428195 430.152685 
L 498.066739 430.464287 
L 495.705282 430.772574 
L 493.343826 431.008452 
L 490.982369 431.288176 
L 488.620912 431.576586 
L 486.259456 431.889176 
L 483.897999 432.151638 
L 481.536543 432.472617 
L 479.175086 432.750552 
L 476.813629 433.037866 
L 474.452173 433.356563 
L 472.090716 433.659354 
L 469.72926 433.917904 
L 467.367803 434.167117 
L 465.006346 434.422804 
L 462.64489 434.674516 
L 460.283433 434.90991 
L 457.921977 435.135878 
L 455.56052 435.395253 
L 453.199063 435.683022 
L 450.837607 435.947644 
L 448.47615 436.226753 
L 446.114694 436.475631 
L 443.753237 436.725119 
L 441.39178 436.993754 
L 439.030324 437.270126 
L 436.668867 437.546497 
L 434.307411 437.784104 
L 431.945954 438.014678 
L 429.584497 438.245252 
L 427.223041 438.475826 
L 424.861584 438.71538 
L 422.500128 438.964243 
L 420.138671 439.211907 
L 417.777214 439.460455 
L 415.415758 439.708967 
L 413.054301 439.958084 
L 410.692845 440.2072 
L 408.331388 440.433065 
L 405.969931 440.689682 
z
" clip-path="url(#pb3524890eb)" style="fill: #1f77b4; fill-opacity: 0.15"/>
   </g>
   <g id="matplotlib.axis_15">
    <g id="xtick_15">
     <g id="line2d_34">
      <g>
       <use xlink:href="#m1db9829479" x="254.010199" y="454.5775" style="stroke: #000000; stroke-width: 0.8"/>
      </g>
     </g>
     <g id="text_17">
      <!-- 0 -->
      <g transform="translate(246.510199 482.2025)scale(0.3 -0.3)">
       <use xlink:href="#SimHei-30"/>
      </g>
     </g>
    </g>
    <g id="xtick_16">
     <g id="line2d_35">
      <g>
       <use xlink:href="#m1db9829479" x="370.902301" y="454.5775" style="stroke: #000000; stroke-width: 0.8"/>
      </g>
     </g>
     <g id="text_18">
      <!-- 1 -->
      <g transform="translate(363.402301 482.2025)scale(0.3 -0.3)">
       <use xlink:href="#SimHei-31"/>
      </g>
     </g>
    </g>
    <g id="text_19">
     <!-- 设备Z -->
     <g transform="translate(274.95625 514.210312)scale(0.3 -0.3)">
      <use xlink:href="#SimHei-8bbe"/>
      <use xlink:href="#SimHei-5907" x="100"/>
      <use xlink:href="#SimHei-5a" x="200"/>
     </g>
    </g>
   </g>
   <g id="matplotlib.axis_16">
    <g id="ytick_18">
     <g id="line2d_36">
      <g>
       <use xlink:href="#m4d9c9cd2cf" x="254.010199" y="450.003155" style="stroke: #000000; stroke-width: 0.8"/>
      </g>
     </g>
    </g>
    <g id="ytick_19">
     <g id="line2d_37">
      <g>
       <use xlink:href="#m4d9c9cd2cf" x="254.010199" y="345.311389" style="stroke: #000000; stroke-width: 0.8"/>
      </g>
     </g>
    </g>
   </g>
   <g id="line2d_38">
    <path d="M 405.969931 444.200551 
L 408.331388 443.895934 
L 410.692845 443.591317 
L 413.054301 443.286699 
L 415.415758 442.982082 
L 417.777214 442.677465 
L 420.138671 442.372848 
L 422.500128 442.068231 
L 424.861584 441.763614 
L 427.223041 441.458997 
L 429.584497 441.15438 
L 431.945954 440.849763 
L 434.307411 440.545146 
L 436.668867 440.240529 
L 439.030324 439.935912 
L 441.39178 439.631295 
L 443.753237 439.326678 
L 446.114694 439.022061 
L 448.47615 438.717444 
L 450.837607 438.412827 
L 453.199063 438.10821 
L 455.56052 437.803593 
L 457.921977 437.498976 
L 460.283433 437.194359 
L 462.64489 436.889742 
L 465.006346 436.585125 
L 467.367803 436.280508 
L 469.72926 435.975891 
L 472.090716 435.671274 
L 474.452173 435.366657 
L 476.813629 435.06204 
L 479.175086 434.757423 
L 481.536543 434.452806 
L 483.897999 434.148189 
L 486.259456 433.843572 
L 488.620912 433.538955 
L 490.982369 433.234338 
L 493.343826 432.929721 
L 495.705282 432.625104 
L 498.066739 432.320487 
L 500.428195 432.01587 
L 502.789652 431.711253 
L 505.151109 431.406636 
L 507.512565 431.102019 
L 509.874022 430.797402 
L 512.235478 430.492785 
L 514.596935 430.188168 
L 516.958392 429.883551 
L 519.319848 429.578934 
L 521.681305 429.274317 
L 524.042761 428.9697 
L 526.404218 428.665083 
L 528.765675 428.360466 
L 531.127131 428.055849 
L 533.488588 427.751232 
L 535.850045 427.446615 
L 538.211501 427.141998 
L 540.572958 426.837381 
L 541 426.782295 
" clip-path="url(#pb3524890eb)" style="fill: none; stroke: #1f77b4; stroke-width: 2.25; stroke-linecap: square"/>
   </g>
   <g id="patch_24">
    <path d="M 254.010199 454.5775 
L 254.010199 324.743621 
" style="fill: none; stroke: #000000; stroke-width: 0.8; stroke-linejoin: miter; stroke-linecap: square"/>
   </g>
   <g id="patch_25">
    <path d="M 254.010199 454.5775 
L 370.902301 454.5775 
" style="fill: none; stroke: #000000; stroke-width: 0.8; stroke-linejoin: miter; stroke-linecap: square"/>
   </g>
  </g>
  <g id="axes_9">
   <g id="patch_26">
    <path d="M 402.707898 454.5775 
L 519.6 454.5775 
L 519.6 324.743621 
L 402.707898 324.743621 
z
" style="fill: #ffffff"/>
   </g>
   <g id="matplotlib.axis_17">
    <g id="xtick_17">
     <g id="line2d_39">
      <g>
       <use xlink:href="#m1db9829479" x="402.707898" y="454.5775" style="stroke: #000000; stroke-width: 0.8"/>
      </g>
     </g>
     <g id="text_20">
      <!-- 0 -->
      <g transform="translate(395.207898 482.2025)scale(0.3 -0.3)">
       <use xlink:href="#SimHei-30"/>
      </g>
     </g>
    </g>
    <g id="xtick_18">
     <g id="line2d_40">
      <g>
       <use xlink:href="#m1db9829479" x="519.6" y="454.5775" style="stroke: #000000; stroke-width: 0.8"/>
      </g>
     </g>
     <g id="text_21">
      <!-- 1 -->
      <g transform="translate(512.1 482.2025)scale(0.3 -0.3)">
       <use xlink:href="#SimHei-31"/>
      </g>
     </g>
    </g>
    <g id="text_22">
     <!-- 静态抗压强度 -->
     <g transform="translate(371.153949 514.093125)scale(0.3 -0.3)">
      <use xlink:href="#SimHei-9759"/>
      <use xlink:href="#SimHei-6001" x="100"/>
      <use xlink:href="#SimHei-6297" x="200"/>
      <use xlink:href="#SimHei-538b" x="300"/>
      <use xlink:href="#SimHei-5f3a" x="400"/>
      <use xlink:href="#SimHei-5ea6" x="500"/>
     </g>
    </g>
   </g>
   <g id="matplotlib.axis_18">
    <g id="ytick_20">
     <g id="line2d_41">
      <g>
       <use xlink:href="#m4d9c9cd2cf" x="402.707898" y="450.003155" style="stroke: #000000; stroke-width: 0.8"/>
      </g>
     </g>
    </g>
    <g id="ytick_21">
     <g id="line2d_42">
      <g>
       <use xlink:href="#m4d9c9cd2cf" x="402.707898" y="345.311389" style="stroke: #000000; stroke-width: 0.8"/>
      </g>
     </g>
    </g>
   </g>
   <g id="patch_27">
    <path d="M 402.707898 454.5775 
L 402.707898 324.743621 
" style="fill: none; stroke: #000000; stroke-width: 0.8; stroke-linejoin: miter; stroke-linecap: square"/>
   </g>
   <g id="patch_28">
    <path d="M 402.707898 454.5775 
L 519.6 454.5775 
" style="fill: none; stroke: #000000; stroke-width: 0.8; stroke-linejoin: miter; stroke-linecap: square"/>
   </g>
  </g>
  <g id="axes_10">
   <g id="patch_29">
    <path d="M 110.625777 152.217973 
L 123.908971 152.217973 
L 123.908971 53.296923 
L 110.625777 53.296923 
z
" clip-path="url(#p9fc25bddb8)" style="fill: #1f77b4; fill-opacity: 0.75; stroke: #000000; stroke-linejoin: miter"/>
   </g>
   <g id="patch_30">
    <path d="M 123.908971 152.217973 
L 137.192164 152.217973 
L 137.192164 53.296923 
L 123.908971 53.296923 
z
" clip-path="url(#p9fc25bddb8)" style="fill: #1f77b4; fill-opacity: 0.75; stroke: #000000; stroke-linejoin: miter"/>
   </g>
   <g id="patch_31">
    <path d="M 137.192164 152.217973 
L 150.475358 152.217973 
L 150.475358 102.757448 
L 137.192164 102.757448 
z
" clip-path="url(#p9fc25bddb8)" style="fill: #1f77b4; fill-opacity: 0.75; stroke: #000000; stroke-linejoin: miter"/>
   </g>
   <g id="patch_32">
    <path d="M 150.475358 152.217973 
L 163.758551 152.217973 
L 163.758551 152.217973 
L 150.475358 152.217973 
z
" clip-path="url(#p9fc25bddb8)" style="fill: #1f77b4; fill-opacity: 0.75; stroke: #000000; stroke-linejoin: miter"/>
   </g>
   <g id="patch_33">
    <path d="M 163.758551 152.217973 
L 177.041744 152.217973 
L 177.041744 152.217973 
L 163.758551 152.217973 
z
" clip-path="url(#p9fc25bddb8)" style="fill: #1f77b4; fill-opacity: 0.75; stroke: #000000; stroke-linejoin: miter"/>
   </g>
   <g id="patch_34">
    <path d="M 177.041744 152.217973 
L 190.324938 152.217973 
L 190.324938 152.217973 
L 177.041744 152.217973 
z
" clip-path="url(#p9fc25bddb8)" style="fill: #1f77b4; fill-opacity: 0.75; stroke: #000000; stroke-linejoin: miter"/>
   </g>
   <g id="patch_35">
    <path d="M 190.324938 152.217973 
L 203.608131 152.217973 
L 203.608131 152.217973 
L 190.324938 152.217973 
z
" clip-path="url(#p9fc25bddb8)" style="fill: #1f77b4; fill-opacity: 0.75; stroke: #000000; stroke-linejoin: miter"/>
   </g>
   <g id="patch_36">
    <path d="M 203.608131 152.217973 
L 216.891324 152.217973 
L 216.891324 127.487711 
L 203.608131 127.487711 
z
" clip-path="url(#p9fc25bddb8)" style="fill: #1f77b4; fill-opacity: 0.75; stroke: #000000; stroke-linejoin: miter"/>
   </g>
  </g>
  <g id="axes_11">
   <g id="patch_37">
    <path d="M 405.969931 303.397737 
L 452.726772 303.397737 
L 452.726772 278.667474 
L 405.969931 278.667474 
z
" clip-path="url(#p35a508c02d)" style="fill: #1f77b4; fill-opacity: 0.75; stroke: #000000; stroke-linejoin: miter"/>
   </g>
   <g id="patch_38">
    <path d="M 452.726772 303.397737 
L 499.483613 303.397737 
L 499.483613 229.206949 
L 452.726772 229.206949 
z
" clip-path="url(#p35a508c02d)" style="fill: #1f77b4; fill-opacity: 0.75; stroke: #000000; stroke-linejoin: miter"/>
   </g>
   <g id="patch_39">
    <path d="M 499.483613 303.397737 
L 546.240454 303.397737 
L 546.240454 278.667474 
L 499.483613 278.667474 
z
" clip-path="url(#p35a508c02d)" style="fill: #1f77b4; fill-opacity: 0.75; stroke: #000000; stroke-linejoin: miter"/>
   </g>
   <g id="patch_40">
    <path d="M 546.240454 303.397737 
L 592.997294 303.397737 
L 592.997294 229.206949 
L 546.240454 229.206949 
z
" clip-path="url(#p35a508c02d)" style="fill: #1f77b4; fill-opacity: 0.75; stroke: #000000; stroke-linejoin: miter"/>
   </g>
   <g id="patch_41">
    <path d="M 592.997294 303.397737 
L 639.754135 303.397737 
L 639.754135 229.206949 
L 592.997294 229.206949 
z
" clip-path="url(#p35a508c02d)" style="fill: #1f77b4; fill-opacity: 0.75; stroke: #000000; stroke-linejoin: miter"/>
   </g>
  </g>
  <g id="axes_12">
   <g id="patch_42">
    <path d="M 5073.716285 454.5775 
L 8631.678079 454.5775 
L 8631.678079 355.656449 
L 5073.716285 355.656449 
z
" clip-path="url(#pb879c86a91)" style="fill: #1f77b4; fill-opacity: 0.75; stroke: #000000; stroke-linejoin: miter"/>
   </g>
   <g id="patch_43">
    <path d="M 8631.678079 454.5775 
L 12189.639873 454.5775 
L 12189.639873 454.5775 
L 8631.678079 454.5775 
z
" clip-path="url(#pb879c86a91)" style="fill: #1f77b4; fill-opacity: 0.75; stroke: #000000; stroke-linejoin: miter"/>
   </g>
   <g id="patch_44">
    <path d="M 12189.639873 454.5775 
L 15747.601667 454.5775 
L 15747.601667 330.926187 
L 12189.639873 330.926187 
z
" clip-path="url(#pb879c86a91)" style="fill: #1f77b4; fill-opacity: 0.75; stroke: #000000; stroke-linejoin: miter"/>
   </g>
   <g id="patch_45">
    <path d="M 15747.601667 454.5775 
L 19305.563461 454.5775 
L 19305.563461 454.5775 
L 15747.601667 454.5775 
z
" clip-path="url(#pb879c86a91)" style="fill: #1f77b4; fill-opacity: 0.75; stroke: #000000; stroke-linejoin: miter"/>
   </g>
   <g id="patch_46">
    <path d="M 19305.563461 454.5775 
L 22863.525255 454.5775 
L 22863.525255 405.116975 
L 19305.563461 405.116975 
z
" clip-path="url(#pb879c86a91)" style="fill: #1f77b4; fill-opacity: 0.75; stroke: #000000; stroke-linejoin: miter"/>
   </g>
  </g>
 </g>
 <defs>
  <clipPath id="p7c0df7b63c">
   <rect x="105.3125" y="173.563858" width="116.892102" height="129.833879"/>
  </clipPath>
  <clipPath id="p8c2c94ad98">
   <rect x="105.3125" y="324.743621" width="116.892102" height="129.833879"/>
  </clipPath>
  <clipPath id="pb3524890eb">
   <rect x="254.010199" y="324.743621" width="116.892102" height="129.833879"/>
  </clipPath>
  <clipPath id="p9fc25bddb8">
   <rect x="105.3125" y="22.384094" width="116.892102" height="129.833879"/>
  </clipPath>
  <clipPath id="p35a508c02d">
   <rect x="254.010199" y="173.563858" width="116.892102" height="129.833879"/>
  </clipPath>
  <clipPath id="pb879c86a91">
   <rect x="402.707898" y="324.743621" width="116.892102" height="129.833879"/>
  </clipPath>
 </defs>
</svg>
